<svg id="Calque_1" data-name="Calque 1" xmlns="http://www.w3.org/2000/svg" xmlns:xlink="http://www.w3.org/1999/xlink" viewBox="0 0 2500 2490"><defs><style>.cls-1{fill:#010f32;}.cls-2,.cls-6,.cls-8{fill:none;}.cls-2{stroke:#296db5;stroke-width:9px;}.cls-2,.cls-4,.cls-6{stroke-miterlimit:10;}.cls-3{fill:#03c9fd;}.cls-4{fill:#000b29;stroke:#000;stroke-width:18px;}.cls-5{fill:#011b4c;}.cls-6{stroke:#2480c2;stroke-width:20px;}.cls-7{fill:#02113b;}.cls-9{fill:#0090e1;}.cls-10{fill:url(#Dégradé_sans_nom);}.cls-11{fill:url(#Dégradé_sans_nom_2);}.cls-12{fill:#e9ca32;}.cls-13{fill:#ffde25;}.cls-14{fill:#fff;}.cls-15{fill:#1b73ba;}.cls-16{fill:#1c88c7;}.cls-17{fill:#e34f26;}.cls-18{fill:#ef652a;}.cls-19{fill:#004482;}.cls-20{fill:#00599c;}.cls-21{fill:#659ad2;}.cls-22{fill:#e76f00;}.cls-23{fill:#5382a1;}.cls-24{fill:#60b9d6;}</style><linearGradient id="Dégradé_sans_nom" x1="1223.59" y1="1663.28" x2="1412.31" y2="1850.55" gradientTransform="matrix(0.94, 0.35, 0.35, -0.94, -229.46, 1372.85)" gradientUnits="userSpaceOnUse"><stop offset="0" stop-color="#387eb8"/><stop offset="1" stop-color="#366994"/></linearGradient><linearGradient id="Dégradé_sans_nom_2" x1="1305.77" y1="1626.63" x2="1508.08" y2="1818.01" gradientTransform="matrix(0.94, 0.35, 0.35, -0.94, -229.46, 1372.85)" gradientUnits="userSpaceOnUse"><stop offset="0" stop-color="#ffe052"/><stop offset="1" stop-color="#ffc331"/></linearGradient></defs><g id="fond"><g id="fond-2" data-name="fond"><polygon class="cls-1" points="188.2 1544.3 2221.1 2379.2 2221.1 2426 1350.7 2426 188.2 1941.2 188.2 1544.3"/></g><g id="fond_haut" data-name="fond haut"><rect class="cls-1" width="2500.7" height="1179"/></g><g id="haut_droite" data-name="haut droite"><path class="cls-2" d="M1793.4-302.9c21.2-14.1,83.2-51.4,167-45.5,128.3,9,198.8,111.2,207.6,124.4q248.85,373.5,497.7,746.9c9.2,13.4,52.2,78.7,37.8,167.7-14.6,90.3-77.8,139-90.6,148.4q-332.55,228.15-665,456.4L1106.2,741.9l-160.8-238c-7.8-18.3-36.6-91.1-7.6-176,21.5-63.1,63.6-99.6,81.8-113.7Q1406.6-44.25,1793.4-302.9Z"/><path class="cls-3" d="M1788.1-180.4c18.1-12.1,71.1-43.9,142.8-38.9,109.7,7.7,170,95.1,177.6,106.4q212.85,319.35,425.6,638.7c7.9,11.4,44.7,67.3,32.3,143.4-12.5,77.2-66.5,118.9-77.5,126.9q-284.4,195.15-568.7,390.3L1200.5,713,1063,509.5c-6.7-15.6-31.3-77.9-6.5-150.5,18.4-54,54.4-85.2,70-97.2Q1457.25,40.7,1788.1-180.4Z"/></g><g id="haut"><circle class="cls-4" cx="90.2" cy="74.2" r="504.2"/></g><g id="midle"><path class="cls-5" d="M2500.7,1119.4Q1250.3,643.45,0,167.6q-.3,940.8-.7,1881.5l2501.4,988.6Z"/></g><g id="bas"><g id="arriere_plan" data-name="arriere plan"><polygon class="cls-1" points="0 1616.3 2032.9 2451.2 2032.9 2498 1162.4 2498 0 2013.2 0 1616.3"/></g><g id="bleu_fonce" data-name="bleu fonce"><path class="cls-6" d="M84.4,2058.6c8.1-21.9,16.2-43.9,24.3-65.8,2.3-6.3,19.2-49.6,67.2-67.2,46-16.9,85.3,2.8,91.5,6.1q254,102.75,508,205.4c9.3,4.3,55.9,26.7,74.7,80.3,11.8,33.7,6.8,63.3,3.7,76.6-10,23.7-19.9,47.3-29.9,71l-22.4,37.3L73.2,2123.9Z"/><polygon class="cls-7" points="0 2490 0 2008.2 1152.2 2490 0 2490"/></g></g><g id="ombre"><line class="cls-8" x1="-196.7" y1="1925.9" x2="1408.7" y2="2597.2"/><path d="M-196.7,1925.9q201.9,81,402.8,164.2l100.5,41.5,100.5,41.6,200.8,83.7,200.6,84.2,100.2,42.3,50.1,21.1,50.1,21.2q200.25,84.9,399.8,171.4-201.9-81-402.8-164.2l-50.3-20.7-50.2-20.8-100.5-41.6-200.8-83.7L403.5,2182l-100.2-42.3-100.1-42.4Q2.95,2012.4-196.7,1925.9Z"/><line class="cls-8" x1="-414" y1="1437.8" x2="2266" y2="2558.5"/><path d="M-414,1437.8q336.15,137.25,671.5,276.6l335.3,139.3,335.1,139.8,334.9,140.3,167.4,70.4,167.3,70.5q334.65,141.15,668.5,283.8-336.15-137.25-671.5-276.6l-167.7-69.6-167.6-69.7L924.1,2002.8,589.2,1862.5,254.5,1721.6Q-80,1580.45-414,1437.8Z"/></g><g id="carre"><path class="cls-9" d="M1786.6,1942.5c5.5-13,22.8-48.9,63.3-71.7,61.9-34.8,125.4-9,133.5-5.6,200.2,85,270.6,111.1,456.2,193.5,18.4,8.2,58.5,25.7,75.4,65.1,16.1,37.7,3.1,76.8-3.8,96.8-28.1,80.7-86.5,227.2-168.3,412.3H1786.7l-146.4-61c-9.2-6-44.5-30.9-56.9-78.9a134.7,134.7,0,0,1,3.3-77.3Q1686.45,2179.3,1786.6,1942.5Z"/><path class="cls-3" d="M1884.3,2072.8c3.3-7.8,13.8-29.6,38.2-43.3,37.4-21,75.8-5.5,80.7-3.4Q2141,2084.6,2278.9,2143c5,2,29,12.4,41.3,39.8,12.5,27.9,3.8,53,2,58q-50.85,124.5-101.7,249.1H1884.4L1796,2453c-5.5-3.7-26.9-18.7-34.4-47.7a81.38,81.38,0,0,1,2-46.7Q1823.75,2216,1884.3,2072.8Z"/></g></g><g id="language"><g id="language-2" data-name="language"><g id="python"><path class="cls-10" d="M1694.8,108.6c-56.8-21.2-62.4,4.7-62.4,4.7l-9.4,25.6,54.2,20.2-2.8,7.6-75.7-28.3s-34.8-17.7-56.2,39.6,11.1,67.1,11.1,67.1l19,7.1,9.9-26.6s10.8-32.1,43.1-20.1l53.7,20.1s29.9,11.8,41-17.9l18.3-49C1738.5,158.6,1754.1,130.7,1694.8,108.6Zm-36.3,5.8a10.28,10.28,0,0,1,6.1,13.4h0a10.28,10.28,0,0,1-13.4,6.1h0a10.28,10.28,0,0,1-6.1-13.4h0a10.52,10.52,0,0,1,13.4-6.1Z"/><path class="cls-11" d="M1613.3,331.6c56.8,21.2,62.4-4.7,62.4-4.7l9.4-25.6-54.2-20.2,2.8-7.6,75.7,28.3s34.8,17.7,56.2-39.6-11.1-67.1-11.1-67.1l-19-7.1-9.9,26.6s-10.8,32.1-43.1,20.1l-53.7-20.1s-29.9-11.8-41,17.9l-18.3,49c.1-.1-15.5,28,43.8,50.1Zm36.2-6a10.28,10.28,0,0,1-6.1-13.4h0a10.28,10.28,0,0,1,13.4-6.1h0a10.28,10.28,0,0,1,6.1,13.4h0a10.4,10.4,0,0,1-13.4,6.1Z"/></g><g id="javascript"><path class="cls-12" d="M1661.1,673.2l61.3-216.6,205.1,77.1L1831,736.5l-92.7-7Z"/><path class="cls-13" d="M1745.8,709.4l72.5-194,84.4,31.9-79.9,167.9Z"/><path class="cls-14" d="M1800.6,535l-22.3-8.3-48.2,129-16.1-9.8,6.5-17.4L1701,617.4l-14.5,38.9,54.5,38.3Zm16.8,6.3,61.9,23.1L1866,587.7,1831.9,575l-15.2,40.7,34.1,12.7-34.7,80.4-58.1-7.7,9.6-25.6,40.9,1.2,14.9-33.2-40.4-8.7,34.9-93.3Z"/></g><g id="css"><path class="cls-15" d="M1409.5,563.5l57.3-202.3,191.8,72-90.3,189.6-86.6-6.6Z"/><path class="cls-16" d="M1488.7,597.3,1556.4,416l78.8,29.8-74.7,156.9Z"/><path class="cls-14" d="M1607.1,461.3l-121.5-45.4-5.5,24.9,57.7,21.6-65.8,3.1-5.3,24.2,83.7,31.3-15,30.9-30.4-5-23.3-16.3,4.7-18.9-23.6-8.8-11,38.9,45.3,32.9,54.3,2.7,33.8-71.6L1534,486.7l64.5-2.3Z"/></g><g id="html"><path class="cls-17" d="M1929.1,773.3l61.4-216.5,205.1,77.1L2099,836.8l-92.7-7Z"/><path class="cls-18" d="M2013.8,809.5l72.5-194,84.4,31.9-79.9,168Z"/><path class="cls-14" d="M2129.5,686.9l12-24.7-130.1-48.6-22.2,81.3,89.7,33.5-16.1,32.2-31.6-3-26-19.4,5.8-20.6-25.8-9.7-11.7,42.2,47.5,34.6,58.9,5.2,37-77.1-94.3-35.2,7.4-27.9Z"/></g><g id="c"><path class="cls-19" d="M2292.9,428.3a21.09,21.09,0,0,0,1.3-11.1,22.51,22.51,0,0,0-4.7-10q-32.1-38.85-64.3-77.8c-5.8-7.1-13-9.5-21.9-7.9-13.2,2.4-79.2,13.2-99,16.6-8.1,1.4-13.5,6.1-16.4,13.8l-35.5,95a22.57,22.57,0,0,0-1.4,10.9,21.28,21.28,0,0,0,4.7,10.2c12.7,15.5,55.4,66.9,63.9,77.4,5.7,7,12.8,9.9,21.7,8.4,33.1-5.6,66.3-11,99.6-16.6a19.41,19.41,0,0,0,10.3-4.6,21.57,21.57,0,0,0,6.1-9.1l35.6-95.2Z"/><path class="cls-20" d="M2257.4,523.3a23.59,23.59,0,0,1-6.1,9.1,11.22,11.22,0,0,1-2.2,1.6l-76.4-96.5,116.9-30.4a20.25,20.25,0,0,1,3.4,21.1c-11.9,31.7-35.6,95.1-35.6,95.1Z"/><path class="cls-21" d="M2294.3,417l-243.1,40.6a22.42,22.42,0,0,1,1.4-10.9l35.5-95c2.9-7.7,8.4-12.4,16.4-13.8,19.7-3.4,85.8-14.3,99-16.6,8.9-1.6,16.2.9,21.9,7.9q32.1,38.85,64.3,77.8A23.46,23.46,0,0,1,2294.3,417Z"/><path class="cls-14" d="M2162.3,477.4a40.13,40.13,0,0,1-25.7-31.7c-.1-.7-.2-1.4-.3-2.2a40.23,40.23,0,0,1,78.1-16.8c.3.8.5,1.6.8,2.4l.3,1.2,40.2-6.7a24.93,24.93,0,0,0-1.2-4.7c-.2-.8-.5-1.6-.7-2.3a80.38,80.38,0,0,0-156.6,33.5c.1.8.2,1.4.3,2.1a80.2,80.2,0,0,0,127.6,51.6l-25-31.6a40.52,40.52,0,0,1-37.8,5.2Z"/></g><g id="java"><path class="cls-22" d="M1934.4,410.2l-.9-.3.2-.5,2.5.9-.2.5-.9-.3-.9,2.5-.6-.2.9-2.5Zm4.8,1.9h0l-1.7,2-.4-.2v-2.7h0l-.9,2.4-.6-.2,1.1-3,.9.3.1,2.5,1.7-1.8.9.3-1.1,3-.6-.2Z"/><path class="cls-23" d="M1877.6,319.5s-7.5,1.2,2.6,6.5c12.2,6.2,18.9,8.5,34,11.1a57,57,0,0,0,7.3,7.6c-36.8,1.8-71.4-27.6-43.9-25.2m2.7-19.1s-8.9,2.5,1.3,7.6c13.2,6.5,24,10.7,44.1,14.2a21,21,0,0,0,5.1,6.6c-42.5-3.3-81.3-29.6-50.5-28.4"/><path class="cls-22" d="M1924.2,282.4c4.5,11.9-8.4,16.3-8.4,16.3s23.7-2.8,19.3-19.1c-4-15.2-8.3-23.5,34.6-30.8,0,.1-60.5-6.7-45.5,33.6"/><path class="cls-23" d="M1943.4,359s3.1,5.4-7.5,4.8c-20.3-1.2-78.8-21.3-92.3-34.3-4.9-4.6,7.3-4.1,11-3.6a29.63,29.63,0,0,1,5.8,1.4c-4.8-6.9-44.8-6.6-22.6,6.1,60.7,34.8,119.5,39.4,105.6,25.6m-49.3-74.5s-32-4-14,5.7c7.6,4.1,23.7,9.8,39.1,14.1,12.6,3.5,25.7,5.9,25.7,5.9a50.94,50.94,0,0,0-8.9,1.2c-32.8-3.2-89.2-28.6-69.6-30.4,16.5-1.6,27.7,3.5,27.7,3.5m41.7,49.3c36.2-4.4,27.8-24.8,17.3-26.4-2.7-.4-3.9-.5-3.9-.5a5.36,5.36,0,0,1,3.3-1c22,.4,26.8,32.9-17.8,28.4a2.11,2.11,0,0,0,1.1-.5"/><path class="cls-22" d="M1961.8,208.3s10.5,23.1-31.9,36.7c-34.1,11-18.2,30.4-17.2,46.1-10.2-19.6-16.9-35.9-5-44.4,17.2-12.6,50.9-9.2,54.1-38.4"/><path class="cls-23" d="M1870,357.9c28.5,12.8,74.3,26.5,80.5,13.1,0,0-4,4.5-27.7.4-26.6-4.6-57.1-16.6-74.2-26.4.1,0,2.7,4.5,21.4,12.9"/><path class="cls-22" d="M1845.5,408.9c-3.6,1.4-7.1,1.6-9.7.7-3.8-1.4-5-4.3-3.6-8,1.4-3.9,4.6-5.8,13.2-2.6l3.2,1.2-3.1,8.7m4.4,11.4,9.9-26.5c2.5-6.8.3-12.7-9-16.2a38.88,38.88,0,0,0-15.2-2.2l-.6,5.2a32.75,32.75,0,0,1,11.6,1.9c5.4,2,6.8,5,5.2,9.4l-1.2,3.3-2.7-1c-13.1-4.9-20.9-2.1-23.7,5.6-2.4,6.5,0,11.7,7.3,14.5,4.7,1.8,8.9,1.1,13.3-.5l-.8,4.2,5.9,2.3Zm25.4,9.5-9.4-3.5,2.5-41.4,8.3,3.1-1.5,25.5-1,7.5a160.83,160.83,0,0,0,18.5-26.8l8,3a171.45,171.45,0,0,1-25.4,32.6m39.4,4.9c-3.6,1.4-7.1,1.6-9.7.7-3.8-1.4-5-4.3-3.6-8,1.4-3.9,4.6-5.8,13.2-2.6l3.2,1.2-3.1,8.7m4.4,11.4,9.9-26.5c2.5-6.8.3-12.7-9-16.2a38.88,38.88,0,0,0-15.2-2.2l-.6,5.2a32.75,32.75,0,0,1,11.6,1.9c5.4,2,6.8,5,5.2,9.4l-1.2,3.3-2.7-1c-13.1-4.9-20.9-2.1-23.7,5.6-2.4,6.5,0,11.7,7.3,14.5,4.7,1.8,8.9,1.1,13.3-.5l-.8,4.2,5.9,2.3ZM1810,412.6a21,21,0,0,1-12.1,3.6l-2.1-5.8a17.32,17.32,0,0,0,8.8-3.7c1.7-1.6,3.1-4,5.4-10.2l15.8-42.3,8,3-15.6,41.7c-2.9,8.1-4.8,11.2-8.2,13.7"/></g></g></g><g id="contact"><path class="cls-24" d="M569.8,1462.2a2.9,2.9,0,1,0,2.9,2.9A2.84,2.84,0,0,0,569.8,1462.2Z"/><path class="cls-24" d="M569.8,1450.7a14.08,14.08,0,0,0-14.1,14.1v.5c0,4,2.7,9.2,7.8,15.1,2.4,2.7,4.8,5,6.3,6.4,5.1-4.6,14.1-14.1,14.1-21.5v-.5A14.08,14.08,0,0,0,569.8,1450.7Zm0,23a8.6,8.6,0,1,1,8.6-8.6A8.6,8.6,0,0,1,569.8,1473.7Z"/><path class="cls-24" d="M565.3,1401.1h-25a44.9,44.9,0,0,0-44.9,44.9v25a44.9,44.9,0,0,0,44.9,44.9h25a44.9,44.9,0,0,0,44.9-44.9v-25A44.9,44.9,0,0,0,565.3,1401.1Zm-7,93.1H531.8a8.6,8.6,0,0,1-8.6-8.6v-31.7l-1.3,1.1a3,3,0,0,1-4.1-.3,2.88,2.88,0,0,1,.3-4.1l33.7-29.2a1.52,1.52,0,0,1,2,0l20.9,18.2a27.15,27.15,0,0,0-4.9-.5,26,26,0,0,0-4,.3l-12-10.4a1.52,1.52,0,0,0-2,0L529,1449v36.7a2.9,2.9,0,0,0,2.9,2.9h23a.91.91,0,0,1,.8.4c1.2,1.3,2.4,2.5,3.5,3.6C559.8,1493.1,559.3,1494.2,558.3,1494.2Zm31.3-28.9c0,5.5-3.1,11.8-9.2,18.8a85.39,85.39,0,0,1-8.8,8.6l-1.8,1.5-1.8-1.5a67.3,67.3,0,0,1-8.8-8.6c-6.1-7-9.2-13.3-9.2-18.8v-.5a19.8,19.8,0,0,1,39.6,0Z"/><path class="cls-24" d="M552.6,1284.8a34.55,34.55,0,1,0,34.7,34.4C587.4,1300.3,571.8,1284.8,552.6,1284.8Zm25.6,36.8a9.19,9.19,0,0,1-16.7,5.3,11.66,11.66,0,0,1-8.8,3.9,11.5,11.5,0,0,1,0-23,12.44,12.44,0,0,1,7.2,2.4v-.1a2.3,2.3,0,1,1,4.6,0v11.5a4.6,4.6,0,1,0,9.2,0v-2.3a20.75,20.75,0,1,0-20.9,21,22,22,0,0,0,12.9-4.3,2.28,2.28,0,0,1,2.8,3.6,26.11,26.11,0,0,1-15.6,5.2,25.48,25.48,0,0,1-25.2-25.5,25.22,25.22,0,0,1,25.2-25.2,25.48,25.48,0,0,1,25.5,25.2l-.2,2.3Z"/><path class="cls-24" d="M552.6,1312.4a6.9,6.9,0,0,0,0,13.8,6.91,6.91,0,1,0,0-13.8Z"/><path class="cls-24" d="M565.3,1259.6h-25a44.9,44.9,0,0,0-44.9,44.9v25a44.9,44.9,0,0,0,44.9,44.9h25a44.9,44.9,0,0,0,44.9-44.9v-25A44.9,44.9,0,0,0,565.3,1259.6Zm-12.7,99c-21.7,0-39-17.9-39-39.3a38.92,38.92,0,0,1,39-39c21.4,0,39.3,17.3,39.3,39A39.43,39.43,0,0,1,552.6,1358.6Z"/><path class="cls-24" d="M565.1,1120.2H540.6a44,44,0,0,0-44,44v24.5a44,44,0,0,0,44,44h24.5a44,44,0,0,0,44-44v-24.5A44.06,44.06,0,0,0,565.1,1120.2Zm-12.3,86.3a37.23,37.23,0,0,1-15.3-3.4l-14.8,4.7a2.2,2.2,0,0,1-.8.1,2.59,2.59,0,0,1-2.4-1.7,2.62,2.62,0,0,1,1.6-3.2l15.8-5a3.1,3.1,0,0,1,1.9.1,32.31,32.31,0,0,0,14,3.3,31.1,31.1,0,1,0-31.1-31.1,34.75,34.75,0,0,0,4,15.1,2.53,2.53,0,0,1-4.5,2.3,39.51,39.51,0,0,1-4.5-17.4,36.1,36.1,0,1,1,36.1,36.2Zm-11.1-48.2c-.1,0-.1,0-.3.1a3.81,3.81,0,0,0-2.4,2.1,3.62,3.62,0,0,0,.3,2.9,39.36,39.36,0,0,0,9.3,12.6h0a39.68,39.68,0,0,0,13.6,7.8,3.65,3.65,0,0,0,2.9,0,4.3,4.3,0,0,0,1.8-2.6v-.3a20.71,20.71,0,0,0-6-3.9,5.92,5.92,0,0,0-.4.6,2.47,2.47,0,1,1-4.2-2.6,5.39,5.39,0,0,1,4.6-3h0c1.7,0,4.1,1.4,5.9,2.5,2.6,1.7,4.2,3.2,4.7,4.4a5.23,5.23,0,0,1,.2,3.7,8.54,8.54,0,0,1-4.3,5.7,7.79,7.79,0,0,1-3.7.9,9.48,9.48,0,0,1-3.2-.6,46.4,46.4,0,0,1-15.3-8.8h-.1a45,45,0,0,1-10.4-14.2,8.39,8.39,0,0,1-.4-6.9,9,9,0,0,1,5.2-4.9,5.26,5.26,0,0,1,3.7-.2c1.3.4,2.9,1.8,4.9,4.2,1.3,1.6,3,3.9,3.1,5.6a5.48,5.48,0,0,1-2.5,5,2.5,2.5,0,0,1-3-4c.3-.2.5-.4.5-.5A17.93,17.93,0,0,0,541.7,1158.3Z"/></g><g id="ligne_bleu_clair" data-name="ligne bleu clair"><rect class="cls-24" x="490.2" y="1011.1" width="1650.2" height="16.5"/><rect class="cls-24" x="490.2" y="1777.4" width="1650.2" height="16.5"/></g></svg>